<svg width="26" height="26" fill="none" xmlns="http://www.w3.org/2000/svg"><g clip-path="url(#clip0_2_23923)"><path d="M25.5 5.248c-.93.408-1.92.679-2.953.81a5.097 5.097 0 002.255-2.833 10.246 10.246 0 01-3.25 1.24 5.124 5.124 0 00-8.866 3.505c0 .407.034.797.119 1.17C8.544 8.93 4.773 6.89 2.24 3.777a5.16 5.16 0 00-.702 2.59 5.13 5.13 0 002.277 4.26 5.062 5.062 0 01-2.315-.63v.056a5.15 5.15 0 004.106 5.036 5.118 5.118 0 01-1.343.169c-.329 0-.66-.019-.97-.088.663 2.03 2.548 3.522 4.788 3.57a10.298 10.298 0 01-6.354 2.187c-.42 0-.824-.02-1.227-.07a14.43 14.43 0 007.863 2.3c9.43 0 14.587-7.813 14.587-14.585 0-.227-.008-.445-.019-.663A10.225 10.225 0 0025.5 5.25z" fill="#2DA0A6"/></g><defs><clipPath id="clip0_2_23923"><path fill="#fff" transform="translate(.5 .5)" d="M0 0h25v25H0z"/></clipPath></defs></svg>