<svg width="26" height="26" fill="none" xmlns="http://www.w3.org/2000/svg"><g clip-path="url(#clip0_2_23919)"><path d="M21.245 14.07c-.404-.51-.289-.737 0-1.193.005-.005 3.341-4.616 3.685-6.179l.002-.001c.171-.57 0-.989-.826-.989h-2.733c-.696 0-1.017.36-1.189.762 0 0-1.391 3.331-3.36 5.49-.636.624-.93.824-1.276.824-.17 0-.437-.2-.437-.77V6.698c0-.683-.194-.989-.77-.989h-4.298c-.437 0-.696.32-.696.616 0 .648.984.797 1.086 2.62V12.9c0 .867-.157 1.026-.506 1.026-.93 0-3.184-3.345-4.52-7.173-.27-.743-.534-1.043-1.235-1.043H1.438c-.78 0-.938.36-.938.762 0 .71.93 4.243 4.32 8.91 2.261 3.185 5.445 4.91 8.34 4.91 1.741 0 1.954-.383 1.954-1.042 0-3.044-.158-3.331.714-3.331.404 0 1.1.2 2.725 1.736 1.857 1.822 2.163 2.638 3.202 2.638h2.733c.78 0 1.175-.384.947-1.14-.52-1.59-4.032-4.862-4.19-5.081z" fill="#2DA0A6"/></g><defs><clipPath id="clip0_2_23919"><path fill="#fff" transform="translate(.5 .5)" d="M0 0h25v25H0z"/></clipPath></defs></svg>