<svg width="20" height="19" fill="none" xmlns="http://www.w3.org/2000/svg"><path d="M15.838 13.317a2.497 2.497 0 00-2.494 2.494 2.497 2.497 0 002.494 2.493 2.497 2.497 0 002.493-2.493 2.497 2.497 0 00-2.493-2.494zm0 3.491a.999.999 0 010-1.995.998.998 0 010 1.995zm4.003-13.129a.747.747 0 00-.589-.287H4.618L3.945.574A.748.748 0 003.217 0H.748a.748.748 0 100 1.496h1.878L5.058 11.67c.08.337.381.574.728.574h11.646a.748.748 0 00.726-.568l1.82-7.357a.75.75 0 00-.137-.64zm-2.995 7.069H6.376l-1.4-5.86h13.32l-1.45 5.86zM6.783 13.317a2.497 2.497 0 00-2.494 2.494 2.497 2.497 0 002.494 2.493 2.497 2.497 0 002.494-2.493 2.497 2.497 0 00-2.494-2.494zm0 3.491a.999.999 0 010-1.995.998.998 0 010 1.995z" fill="#fff"/></svg>