<svg width="24" height="22" fill="none" xmlns="http://www.w3.org/2000/svg"><path d="M19.004 15.998a2.996 2.996 0 00-2.992 2.992 2.996 2.996 0 002.992 2.993 2.996 2.996 0 002.993-2.993 2.996 2.996 0 00-2.993-2.992zm0 4.19a1.198 1.198 0 111.197-1.197c0 .66-.537 1.196-1.197 1.196zM23.81 4.432a.897.897 0 00-.708-.345H5.542L4.734.707a.898.898 0 00-.874-.69H.898a.898.898 0 100 1.796h2.254l2.917 12.208c.097.405.458.69.874.69h13.975a.898.898 0 00.871-.682L23.974 5.2a.9.9 0 00-.165-.77zm-3.595 8.483H7.651l-1.68-7.032h15.984l-1.74 7.032zM8.14 15.998a2.996 2.996 0 00-2.992 2.992 2.996 2.996 0 002.993 2.993 2.996 2.996 0 002.992-2.993 2.996 2.996 0 00-2.992-2.992zm0 4.19a1.198 1.198 0 010-2.395 1.198 1.198 0 010 2.394z" fill="#2DA0A6"/></svg>