<svg width="24" height="24" fill="none" xmlns="http://www.w3.org/2000/svg"><g clip-path="url(#clip0_2_23744)" fill="#fff"><path d="M23.76 9.631a11.918 11.918 0 00-5.12-7.623 11.962 11.962 0 00-8.634-1.84l-.06.008C3.428 1.31-.954 7.534.18 14.05c.09.522.217 1.043.374 1.543a8.98 8.98 0 01-.458 6.478.998.998 0 001.167 1.39l4.481-1.224A11.892 11.892 0 0011.972 24c.795 0 1.596-.079 2.393-.24a11.918 11.918 0 007.624-5.119 11.923 11.923 0 001.77-9.01zm-3.437 7.902A9.933 9.933 0 0113.97 21.8a9.949 9.949 0 01-7.508-1.476 1.003 1.003 0 00-.817-.132l-3.052.833c.516-1.967.478-4.05-.13-6.028a9.874 9.874 0 01-.314-1.289c-.94-5.416 2.688-10.59 8.093-11.553l.054-.008c2.53-.437 5.1.106 7.238 1.526a9.931 9.931 0 014.266 6.352 9.932 9.932 0 01-1.477 7.508z"/><path d="M15.998 9H8a.999.999 0 100 1.999h7.998a1 1 0 100-2zm0 3.998H8a.999.999 0 100 2h7.998a1 1 0 100-2z"/></g><defs><clipPath id="clip0_2_23744"><path fill="#fff" d="M0 0h24v24H0z"/></clipPath></defs></svg>