<svg width="24" height="24" fill="none" xmlns="http://www.w3.org/2000/svg"><path fill-rule="evenodd" clip-rule="evenodd" d="M12 15.548a3.488 3.488 0 01-3.492-3.492A3.488 3.488 0 0112 8.563a3.488 3.488 0 013.492 3.493A3.5 3.5 0 0112 15.548zm0-9.808a6.303 6.303 0 00-6.297 6.297A6.303 6.303 0 0012 18.334a6.303 6.303 0 006.297-6.297A6.303 6.303 0 0012 5.74zm0 15.492c-5.108 0-9.232-4.142-9.232-9.232a9.09 9.09 0 011.189-4.514L1.932 5.48A12.002 12.002 0 000 12c0 6.632 5.368 12 12 12 2.415 0 4.644-.724 6.52-1.932l-2.006-2.006A9.276 9.276 0 0112 21.232zm10.05-15.77l-2.007 2.005a9.092 9.092 0 011.19 4.514 9.277 9.277 0 01-1.171 4.514l2.006 2.006A11.848 11.848 0 0024 11.982c0-2.396-.724-4.625-1.95-6.52zM12 2.767c1.635 0 3.177.427 4.495 1.17l2.006-2.006A11.986 11.986 0 0012 0C9.604 0 7.356.706 5.48 1.932l2.006 2.006A9.277 9.277 0 0112 2.768z" fill="#2DA0A6"/></svg>