<svg width="16" height="16" fill="none" xmlns="http://www.w3.org/2000/svg"><g clip-path="url(#clip0_2_20291)" fill="#2DA0A6"><path d="M11.784.52a.911.911 0 00-1.226.4l-6.78 13.334a.912.912 0 101.626.826l6.78-13.334a.912.912 0 00-.4-1.226zm-4.87 4.391a3.461 3.461 0 00-3.457-3.457A3.461 3.461 0 000 4.911 3.461 3.461 0 003.457 8.37a3.461 3.461 0 003.457-3.46zM3.457 6.545a1.636 1.636 0 01-1.634-1.634c0-.9.733-1.634 1.634-1.634.901 0 1.634.733 1.634 1.634 0 .901-.733 1.634-1.634 1.634zm9.086 1.086a3.461 3.461 0 00-3.457 3.457 3.461 3.461 0 003.457 3.458A3.461 3.461 0 0016 11.089a3.461 3.461 0 00-3.457-3.458zm0 5.091a1.636 1.636 0 01-1.634-1.633c0-.902.733-1.635 1.634-1.635.901 0 1.634.733 1.634 1.634 0 .902-.733 1.635-1.634 1.635z"/></g><defs><clipPath id="clip0_2_20291"><path fill="#fff" d="M0 0h16v16H0z"/></clipPath></defs></svg>