<svg width="199" height="16" fill="none" xmlns="http://www.w3.org/2000/svg"><path d="M198.354 8.354a.5.5 0 000-.708l-3.182-3.182a.501.501 0 00-.708.708L197.293 8l-2.829 2.828a.5.5 0 00.708.708l3.182-3.182zM.99 8.5a.5.5 0 000-1v1zm5.94-1a.5.5 0 000 1v-1zm1.98 1a.5.5 0 000-1v1zm5.94-1a.5.5 0 000 1v-1zm1.98 1a.5.5 0 000-1v1zm5.94-1a.5.5 0 000 1v-1zm1.98 1a.5.5 0 000-1v1zm5.94-1a.5.5 0 000 1v-1zm1.98 1a.5.5 0 000-1v1zm5.94-1a.5.5 0 000 1v-1zm1.98 1a.5.5 0 000-1v1zm5.94-1a.5.5 0 000 1v-1zm1.98 1a.5.5 0 000-1v1zm5.94-1a.5.5 0 000 1v-1zm1.98 1a.5.5 0 000-1v1zm5.94-1a.5.5 0 000 1v-1zm1.98 1a.5.5 0 000-1v1zm5.94-1a.5.5 0 000 1v-1zm1.98 1a.5.5 0 000-1v1zm5.94-1a.5.5 0 000 1v-1zm1.98 1a.5.5 0 100-1v1zm5.94-1a.5.5 0 000 1v-1zm1.98 1a.5.5 0 100-1v1zm5.94-1a.5.5 0 000 1v-1zm1.98 1a.5.5 0 100-1v1zm5.94-1a.5.5 0 000 1v-1zm1.98 1a.5.5 0 000-1v1zm5.94-1a.5.5 0 000 1v-1zm1.98 1a.5.5 0 000-1v1zm5.94-1a.5.5 0 000 1v-1zm1.98 1a.5.5 0 000-1v1zm5.94-1a.5.5 0 000 1v-1zm1.98 1a.5.5 0 000-1v1zm5.94-1a.5.5 0 000 1v-1zm1.98 1a.5.5 0 000-1v1zm5.94-1a.5.5 0 000 1v-1zm1.98 1a.5.5 0 000-1v1zm5.94-1a.5.5 0 000 1v-1zm1.98 1a.5.5 0 000-1v1zm5.94-1a.5.5 0 000 1v-1zm1.98 1a.5.5 0 000-1v1zm5.94-1a.5.5 0 000 1v-1zm1.98 1a.5.5 0 000-1v1zm5.94-1a.5.5 0 000 1v-1zm1.98 1a.5.5 0 000-1v1zm5.94-1a.5.5 0 000 1v-1zm1.98 1a.5.5 0 000-1v1zm5.94-1a.5.5 0 000 1v-1zm1.98 1a.5.5 0 000-1v1zm5.94-1a.5.5 0 000 1v-1zM0 8.5h.99v-1H0v1zm6.93 0h1.98v-1H6.93v1zm7.92 0h1.98v-1h-1.98v1zm7.92 0h1.98v-1h-1.98v1zm7.92 0h1.98v-1h-1.98v1zm7.92 0h1.98v-1h-1.98v1zm7.92 0h1.98v-1h-1.98v1zm7.92 0h1.98v-1h-1.98v1zm7.92 0h1.98v-1h-1.98v1zm7.92 0h1.98v-1h-1.98v1zm7.92 0h1.98v-1h-1.98v1zm7.92 0h1.98v-1h-1.98v1zm7.92 0h1.98v-1h-1.98v1zm7.92 0h1.98v-1h-1.98v1zm7.92 0h1.98v-1h-1.98v1zm7.92 0h1.98v-1h-1.98v1zm7.92 0h1.98v-1h-1.98v1zm7.92 0h1.98v-1h-1.98v1zm7.92 0h1.98v-1h-1.98v1zm7.92 0h1.98v-1h-1.98v1zm7.92 0h1.98v-1h-1.98v1zm7.92 0h1.98v-1h-1.98v1zm7.92 0h1.98v-1h-1.98v1zm7.92 0h1.98v-1h-1.98v1zm7.92 0h1.98v-1h-1.98v1zm7.92 0h.99v-1h-.99v1zm1.697.207a1 1 0 000-1.414L192.343.929a1 1 0 10-1.414 1.414L196.586 8l-5.657 5.657a1 1 0 101.414 1.414l6.364-6.364zM.99 9a1 1 0 000-2v2zm5.94-2a1 1 0 000 2V7zm1.98 2a1 1 0 000-2v2zm5.94-2a1 1 0 100 2V7zm1.98 2a1 1 0 100-2v2zm5.94-2a1 1 0 100 2V7zm1.98 2a1 1 0 100-2v2zm5.94-2a1 1 0 100 2V7zm1.98 2a1 1 0 100-2v2zm5.94-2a1 1 0 100 2V7zm1.98 2a1 1 0 100-2v2zm5.94-2a1 1 0 100 2V7zm1.98 2a1 1 0 100-2v2zm5.94-2a1 1 0 100 2V7zm1.98 2a1 1 0 100-2v2zm5.94-2a1 1 0 100 2V7zm1.98 2a1 1 0 100-2v2zm5.94-2a1 1 0 100 2V7zm1.98 2a1 1 0 100-2v2zm5.94-2a1 1 0 100 2V7zm1.98 2a1 1 0 100-2v2zm5.94-2a1 1 0 100 2V7zm1.98 2a1 1 0 100-2v2zm5.94-2a1 1 0 100 2V7zm1.98 2a1 1 0 100-2v2zm5.94-2a1 1 0 000 2V7zm1.98 2a1 1 0 000-2v2zm5.94-2a1 1 0 000 2V7zm1.98 2a1 1 0 000-2v2zm5.94-2a1 1 0 000 2V7zm1.98 2a1 1 0 000-2v2zm5.94-2a1 1 0 000 2V7zm1.98 2a1 1 0 000-2v2zm5.94-2a1 1 0 000 2V7zm1.98 2a1 1 0 000-2v2zm5.94-2a1 1 0 000 2V7zm1.98 2a1 1 0 000-2v2zm5.94-2a1 1 0 000 2V7zm1.98 2a1 1 0 000-2v2zm5.94-2a1 1 0 000 2V7zm1.98 2a1 1 0 000-2v2zm5.94-2a1 1 0 000 2V7zm1.98 2a1 1 0 000-2v2zm5.94-2a1 1 0 000 2V7zm1.98 2a1 1 0 000-2v2zm5.94-2a1 1 0 000 2V7zm1.98 2a1 1 0 000-2v2zm5.94-2a1 1 0 000 2V7zm1.98 2a1 1 0 000-2v2zm5.94-2a1 1 0 000 2V7zM0 9h.99V7H0v2zm6.93 0h1.98V7H6.93v2zm7.92 0h1.98V7h-1.98v2zm7.92 0h1.98V7h-1.98v2zm7.92 0h1.98V7h-1.98v2zm7.92 0h1.98V7h-1.98v2zm7.92 0h1.98V7h-1.98v2zm7.92 0h1.98V7h-1.98v2zm7.92 0h1.98V7h-1.98v2zm7.92 0h1.98V7h-1.98v2zm7.92 0h1.98V7h-1.98v2zm7.92 0h1.98V7h-1.98v2zm7.92 0h1.98V7h-1.98v2zm7.92 0h1.98V7h-1.98v2zm7.92 0h1.98V7h-1.98v2zm7.92 0h1.98V7h-1.98v2zm7.92 0h1.98V7h-1.98v2zm7.92 0h1.98V7h-1.98v2zm7.92 0h1.98V7h-1.98v2zm7.92 0h1.98V7h-1.98v2zm7.92 0h1.98V7h-1.98v2zm7.92 0h1.98V7h-1.98v2zm7.92 0h1.98V7h-1.98v2zm7.92 0h1.98V7h-1.98v2zm7.92 0h1.98V7h-1.98v2zm7.92 0h.99V7h-.99v2z" fill="#2DA0A6"/></svg>