<svg width="26" height="24" fill="none" xmlns="http://www.w3.org/2000/svg"><path d="M14.016 17.438c0 .517-.455.937-1.016.937-.56 0-1.016-.42-1.016-.938 0-.517.455-.937 1.016-.937.56 0 1.016.42 1.016.938zM13 5.624c-.56 0-1.016.42-1.016.937v7.125c0 .518.455.938 1.016.938.56 0 1.016-.42 1.016-.938V6.562c0-.517-.455-.937-1.016-.937zM25.945 22.76c.27.735-.493 1.438-1.288 1.189l-5.09-1.593a13.796 13.796 0 01-6.568 1.642C5.814 23.998 0 18.631 0 12 0 5.367 5.815 0 13 0c7.184 0 12.998 5.368 12.998 12a11.27 11.27 0 01-1.779 6.062l1.726 4.698zm-3.696-5.318A9.531 9.531 0 0023.967 12c0-5.596-4.906-10.124-10.968-10.124S2.031 6.404 2.031 11.999c0 5.597 4.906 10.125 10.968 10.125 2.098 0 4.137-.549 5.897-1.586.26-.154.58-.19.872-.098l3.593 1.124-1.218-3.316a.876.876 0 01.106-.806z" fill="#2DA0A6"/></svg>