<svg width="16" height="65" fill="none" xmlns="http://www.w3.org/2000/svg"><path d="M7.646 64.354a.5.5 0 00.708 0l3.182-3.182a.5.5 0 10-.708-.707L8 63.293l-2.828-2.828a.5.5 0 10-.708.707l3.182 3.182zM7.5 1a.5.5 0 001 0h-1zm1 6a.5.5 0 00-1 0h1zm-1 2a.5.5 0 001 0h-1zm1 6a.5.5 0 00-1 0h1zm-1 2a.5.5 0 001 0h-1zm1 6a.5.5 0 00-1 0h1zm-1 2a.5.5 0 001 0h-1zm1 6a.5.5 0 00-1 0h1zm-1 2a.5.5 0 001 0h-1zm1 6a.5.5 0 00-1 0h1zm-1 2a.5.5 0 001 0h-1zm1 6a.5.5 0 00-1 0h1zm-1 2a.5.5 0 001 0h-1zm1 6a.5.5 0 00-1 0h1zm-1 2a.5.5 0 001 0h-1zm1 6a.5.5 0 00-1 0h1zm-1-63v1h1V0h-1zm0 7v2h1V7h-1zm0 8v2h1v-2h-1zm0 8v2h1v-2h-1zm0 8v2h1v-2h-1zm0 8v2h1v-2h-1zm0 8v2h1v-2h-1zm0 8v2h1v-2h-1zm0 8v1h1v-1h-1zm-.207 1.707a1 1 0 001.414 0l6.364-6.364a1 1 0 00-1.414-1.414L8 62.586l-5.657-5.657A1 1 0 00.93 58.343l6.364 6.364zM7 1a1 1 0 002 0H7zm2 6a1 1 0 10-2 0h2zM7 9a1 1 0 102 0H7zm2 6a1 1 0 10-2 0h2zm-2 2a1 1 0 102 0H7zm2 6a1 1 0 10-2 0h2zm-2 2a1 1 0 102 0H7zm2 6a1 1 0 10-2 0h2zm-2 2a1 1 0 102 0H7zm2 6a1 1 0 10-2 0h2zm-2 2a1 1 0 102 0H7zm2 6a1 1 0 10-2 0h2zm-2 2a1 1 0 102 0H7zm2 6a1 1 0 10-2 0h2zm-2 2a1 1 0 102 0H7zm2 6a1 1 0 10-2 0h2zM7 0v1h2V0H7zm0 7v2h2V7H7zm0 8v2h2v-2H7zm0 8v2h2v-2H7zm0 8v2h2v-2H7zm0 8v2h2v-2H7zm0 8v2h2v-2H7zm0 8v2h2v-2H7zm0 8v1h2v-1H7z" fill="#2DA0A6"/></svg>