<svg width="23" height="23" fill="none" xmlns="http://www.w3.org/2000/svg"><path d="M10.57.495C4.74.495 0 5.085 0 10.729c0 5.643 4.741 10.234 10.57 10.234 5.827 0 10.568-4.59 10.568-10.234 0-5.643-4.74-10.234-10.569-10.234zm0 18.579c-4.753 0-8.619-3.744-8.619-8.345 0-4.601 3.866-8.345 8.618-8.345 4.752 0 8.618 3.744 8.618 8.345 0 4.601-3.866 8.345-8.618 8.345z" fill="#2DA0A6"/><path d="M22.716 21.153l-4.594-4.448a.998.998 0 00-1.38 0 .923.923 0 000 1.336l4.594 4.448c.191.184.44.277.69.277.25 0 .5-.092.69-.277a.923.923 0 000-1.336z" fill="#2DA0A6"/></svg>