<svg width="24" height="24" fill="none" xmlns="http://www.w3.org/2000/svg"><g clip-path="url(#clip0_2_20221)" fill="#2DA0A6"><path d="M11.999 13.518C4.788 13.518.816 16.93.816 23.124c0 .484.393.876.876.876h20.613a.876.876 0 00.876-.876c0-6.194-3.971-9.606-11.182-9.606zM2.6 22.248c.345-4.631 3.502-6.978 9.4-6.978 5.896 0 9.054 2.347 9.399 6.978H2.6zM12.002 0c-3.313 0-5.81 2.548-5.81 5.927 0 3.477 2.606 6.306 5.81 6.306 3.203 0 5.81-2.829 5.81-6.306 0-3.379-2.498-5.927-5.81-5.927zm0 10.482c-2.238 0-4.059-2.043-4.059-4.555 0-2.42 1.707-4.175 4.059-4.175 2.313 0 4.058 1.795 4.058 4.175 0 2.512-1.82 4.555-4.058 4.555z"/></g><defs><clipPath id="clip0_2_20221"><path fill="#fff" d="M0 0h24v24H0z"/></clipPath></defs></svg>