<svg width="26" height="26" fill="none" xmlns="http://www.w3.org/2000/svg"><g clip-path="url(#clip0_2_23716)"><path d="M13 7.719a5.338 5.338 0 00-5.332 5.332A5.338 5.338 0 0013 18.383a5.338 5.338 0 005.332-5.332A5.338 5.338 0 0013 7.719zm0 0a5.338 5.338 0 00-5.332 5.332A5.338 5.338 0 0013 18.383a5.338 5.338 0 005.332-5.332A5.338 5.338 0 0013 7.719zM22.191 0H3.81A3.81 3.81 0 000 3.809V22.19A3.81 3.81 0 003.809 26H22.19A3.81 3.81 0 0026 22.191V3.81A3.81 3.81 0 0022.191 0zM13 19.906c-3.778 0-6.855-3.077-6.855-6.855 0-3.778 3.077-6.856 6.855-6.856 3.778 0 6.855 3.078 6.855 6.856S16.779 19.906 13 19.906zm8.379-13.71a1.528 1.528 0 01-1.524-1.524c0-.838.686-1.524 1.524-1.524s1.523.686 1.523 1.524-.685 1.523-1.523 1.523zM13 7.718a5.338 5.338 0 00-5.332 5.332A5.338 5.338 0 0013 18.383a5.338 5.338 0 005.332-5.332A5.338 5.338 0 0013 7.719zm0 0a5.338 5.338 0 00-5.332 5.332A5.338 5.338 0 0013 18.383a5.338 5.338 0 005.332-5.332A5.338 5.338 0 0013 7.719zm0 0a5.338 5.338 0 00-5.332 5.332A5.338 5.338 0 0013 18.383a5.338 5.338 0 005.332-5.332A5.338 5.338 0 0013 7.719z" fill="#2DA0A6"/></g><defs><clipPath id="clip0_2_23716"><path fill="#fff" d="M0 0h26v26H0z"/></clipPath></defs></svg>