<svg width="32" height="32" fill="none" xmlns="http://www.w3.org/2000/svg"><g clip-path="url(#clip0_2_23710)"><path d="M26.553 17.37c-.517-.653-.369-.943 0-1.527.007-.007 4.278-5.908 4.718-7.91h.002c.219-.73 0-1.266-1.057-1.266h-3.499c-.89 0-1.301.46-1.521.974 0 0-1.781 4.264-4.301 7.028-.814.8-1.19 1.055-1.634 1.055-.218 0-.558-.256-.558-.985V7.932c0-.875-.25-1.265-.987-1.265h-5.501c-.559 0-.891.408-.891.788 0 .83 1.26 1.02 1.39 3.353v5.063c0 1.11-.2 1.313-.647 1.313-1.19 0-4.076-4.281-5.787-9.181-.345-.95-.683-1.335-1.58-1.335H1.2c-.999 0-1.2.46-1.2.975 0 .91 1.19 5.43 5.53 11.404 2.894 4.077 6.969 6.286 10.675 6.286 2.228 0 2.5-.49 2.5-1.334 0-3.896-.201-4.264.915-4.264.517 0 1.408.256 3.488 2.222 2.377 2.332 2.768 3.376 4.099 3.376h3.498c.998 0 1.503-.49 1.212-1.458-.665-2.036-5.161-6.224-5.364-6.504z" fill="#2DA0A6"/></g><defs><clipPath id="clip0_2_23710"><path fill="#fff" d="M0 0h32v32H0z"/></clipPath></defs></svg>