<svg width="32" height="32" fill="none" xmlns="http://www.w3.org/2000/svg"><path d="M15.637 26.182c6.627 0 12-5.373 12-12 0-6.628-5.373-12-12-12-6.628 0-12 5.372-12 12 0 6.627 5.372 12 12 12z" fill="#fff"/><path d="M16.001 22.607a8.517 8.517 0 100-17.034 8.517 8.517 0 000 17.034z" fill="#2DA0A6"/><path d="M26.008 4.145A14.06 14.06 0 0016 0 14.06 14.06 0 005.993 4.145a14.06 14.06 0 00-4.145 10.008c0 6.669 4.662 12.427 11.14 13.83L16 32l3.013-4.017c6.477-1.404 11.14-7.161 11.14-13.83a14.06 14.06 0 00-4.145-10.008zM16 3.695c5.732 0 10.396 4.663 10.396 10.395 0 5.732-4.664 10.395-10.396 10.395-5.732 0-10.395-4.663-10.395-10.395C5.605 8.358 10.268 3.695 16 3.695z" fill="#2DA0A6"/></svg>