<svg width="89" height="92" fill="none" xmlns="http://www.w3.org/2000/svg"><path d="M5.002 70.655c5.944 17.475 17.042 23.977 33.294 19.507 16.252-4.47 30.247-13.208 41.985-26.212 11.737-13.005 11.624-25.765-.339-38.282C67.98 13.151 54.662 5.674 39.99 3.235 25.317.797 14.332 7.055 7.034 22.011-.265 36.965-.942 53.18 5.002 70.654z" fill="#EFF3F6"/><path d="M86.46 17.12c-1.932 3.274-4.826 5.19-8.776 5.77-1.936.284-3.61.016-5.065-.758-1.465-.778-2.786-2.11-3.937-4.077C67.54 16.1 66.994 14.194 67 12.322c.006-1.871.561-3.772 1.716-5.713 2.296-3.861 5.448-5.678 9.539-5.607 2.088.036 3.803.534 5.193 1.447 1.39.913 2.52 2.284 3.367 4.174 1.703 3.796 1.558 7.256-.355 10.497zM11.273 8.29c-.924 1.5-2.302 2.387-4.24 2.66-.932.13-1.708.004-2.37-.333-.67-.341-1.297-.935-1.86-1.858-.557-.912-.806-1.773-.803-2.596.003-.824.256-1.681.818-2.587 1.109-1.787 2.6-2.608 4.568-2.575 1.024.017 1.833.25 2.471.652.636.4 1.167 1.008 1.574 1.878.82 1.755.742 3.298-.158 4.759z" stroke="#2DA0A6" stroke-width="2"/><path d="M58.25 22H5.75C2.58 22 0 24.58 0 27.75v32.5C0 63.42 2.58 66 5.75 66h52.5c3.17 0 5.75-2.58 5.75-5.75v-32.5c0-3.17-2.58-5.75-5.75-5.75zM20 39.5c0 2.481-2.019 4.5-4.5 4.5h-3A4.505 4.505 0 018 39.5v-3c0-2.481 2.019-4.5 4.5-4.5h3c2.481 0 4.5 2.019 4.5 4.5v3zm25.712 10.214a2 2 0 01-1.57-3.238A3.96 3.96 0 0045.001 44a3.96 3.96 0 00-.857-2.476 2 2 0 013.142-2.476A8.032 8.032 0 0149 44c0 1.79-.61 3.548-1.716 4.952-.394.5-.98.762-1.572.762zm6.455 4.3c-.395.44-.94.665-1.489.665a2 2 0 01-1.488-3.336A10.978 10.978 0 0052 44c0-2.716-.998-5.324-2.81-7.343a2 2 0 012.977-2.671A14.973 14.973 0 0156 44c0 3.704-1.361 7.26-3.833 10.014z" fill="#2DA0A6"/></svg>