<svg width="89" height="92" fill="none" xmlns="http://www.w3.org/2000/svg"><path d="M5.002 70.655c5.944 17.475 17.042 23.977 33.294 19.507 16.252-4.47 30.247-13.208 41.985-26.212 11.737-13.005 11.624-25.765-.339-38.282C67.98 13.151 54.662 5.674 39.99 3.235 25.317.797 14.332 7.055 7.034 22.011-.265 36.965-.942 53.18 5.002 70.654z" fill="#EFF3F6"/><path d="M87.273 8.29c-.924 1.5-2.302 2.387-4.24 2.66-.932.13-1.708.004-2.37-.333-.67-.341-1.297-.935-1.86-1.858-.557-.912-.805-1.773-.803-2.596.003-.824.256-1.681.818-2.587 1.109-1.787 2.6-2.608 4.568-2.575 1.024.017 1.833.25 2.471.652.636.4 1.167 1.008 1.573 1.878.822 1.755.743 3.298-.157 4.759z" stroke="#BF573F" stroke-width="2"/><path d="M50.84 13.938H13.16C5.904 13.938 0 19.84 0 27.098 0 34.392 5.965 40.26 13.082 40.26h5.912V29.948c0-4.618 3.757-8.375 8.375-8.375h.018c4.608.01 8.357 3.767 8.357 8.375V40.26h15.095C58.096 40.26 64 34.356 64 27.099c0-7.258-5.904-13.162-13.16-13.162zm3.723 11.325l-7.5 7.5a1.875 1.875 0 01-2.651 0l-3.75-3.75a1.875 1.875 0 112.651-2.651l2.425 2.424 6.174-6.174a1.875 1.875 0 112.651 2.651z" fill="#BF573F"/><path d="M44.063 45.536l-12.07-1.255V29.949a4.625 4.625 0 10-9.25 0v23.99h-.042l-4.565-3.813a4.448 4.448 0 10-5.702 6.83l9.267 7.732h27.292v-13.57a5.625 5.625 0 00-4.93-5.58zM22.744 72.188c0 1.035.84 1.874 1.875 1.874h22.5a1.874 1.874 0 001.875-1.874v-3.75h-26.25v3.75z" fill="#BF573F"/><path d="M86.46 67.12c-1.932 3.274-4.826 5.19-8.776 5.77-1.936.284-3.61.016-5.065-.758-1.465-.778-2.786-2.11-3.937-4.077C67.54 66.1 66.994 64.194 67 62.322c.006-1.871.561-3.772 1.716-5.713 2.296-3.861 5.448-5.678 9.539-5.607 2.088.036 3.803.534 5.193 1.447 1.39.913 2.52 2.284 3.367 4.174 1.703 3.796 1.558 7.256-.355 10.497z" stroke="#BF573F" stroke-width="2"/></svg>