<svg width="88" height="92" fill="none" xmlns="http://www.w3.org/2000/svg"><path d="M4.002 71.037c5.944 17.475 17.042 23.977 33.294 19.507 16.252-4.47 30.247-13.208 41.985-26.212 11.737-13.004 11.624-25.765-.339-38.282C66.98 13.534 53.662 6.056 38.99 3.618 24.317 1.179 13.332 7.438 6.034 22.393c-7.299 14.955-7.976 31.17-2.032 48.644z" fill="#EFF3F6"/><path d="M86.273 8.29c-.924 1.5-2.302 2.387-4.24 2.66-.932.13-1.708.004-2.37-.333-.67-.341-1.297-.935-1.86-1.858-.557-.912-.805-1.773-.803-2.596.003-.824.256-1.681.818-2.587 1.109-1.787 2.6-2.608 4.568-2.575 1.024.017 1.833.25 2.471.652.636.4 1.167 1.008 1.573 1.878.822 1.755.743 3.298-.157 4.759z" stroke="#D98F4E" stroke-width="2"/><g clip-path="url(#clip0_15_5)" fill="#D98F4E"><path d="M.872 44.083A1.334 1.334 0 00.08 45.79l.838 2.304 6.375-6.376-6.42 2.365zm6.034 20.479l3.84 10.56a1.341 1.341 0 001.715.795l4.237-1.563-9.792-9.792zm57.011-9.015l-4.394-12.083-10.546 10.547 5.226-1.926a1.327 1.327 0 011.712.79 1.332 1.332 0 01-.79 1.712l-6.64 2.447a1.333 1.333 0 01-1.712-.79c-.002-.007 0-.015-.002-.023L35.596 67.397l27.53-10.144a1.33 1.33 0 00.791-1.706zm-.309-21.824L42.276 12.391a1.334 1.334 0 00-1.886 0L.393 52.389c-.52.52-.52 1.366 0 1.886l21.333 21.332a1.335 1.335 0 001.885.002l39.998-39.998c.52-.522.52-1.365 0-1.888zM15.61 48.944l-5.333 5.333a1.34 1.34 0 01-1.888 0 1.334 1.334 0 010-1.885l5.333-5.333a1.334 1.334 0 011.888 1.885zm23.026 1.693c-.944.944-2.227 1.398-3.653 1.398-2.358 0-5.112-1.235-7.416-3.542-1.685-1.685-2.87-3.7-3.33-5.674-.512-2.2-.091-4.114 1.186-5.394 1.277-1.28 3.192-1.702 5.395-1.187 1.973.461 3.989 1.643 5.674 3.33 3.704 3.702 4.648 8.566 2.144 11.07zm16.973-15.026l-5.334 5.334a1.34 1.34 0 01-1.887 0 1.334 1.334 0 010-1.886l5.333-5.333a1.334 1.334 0 011.888 1.885z"/></g><defs><clipPath id="clip0_15_5"><path fill="#fff" transform="translate(0 12)" d="M0 0h64v64H0z"/></clipPath></defs></svg>