<svg width="68" height="51" fill="none" xmlns="http://www.w3.org/2000/svg"><path d="M34.26.733h-.52C15.133.733 0 15.251 0 33.065 0 39.278 1.948 44.92 5.196 49.77c.195.19.617.602 1.006.38.423-.253.098-1.078-.032-1.363a29.5 29.5 0 01-3.734-14.422c0-16.769 13.93-30.43 31.077-30.557h.974c17.179.127 31.077 13.788 31.077 30.557a29.8 29.8 0 01-3.67 14.327h.066s-.617 1.173-.098 1.458c.293.159.618-.032.845-.222C66.019 45.047 68 39.341 68 33.065 68 15.251 52.867.733 34.26.733z" fill="#6A301A"/><path fill-rule="evenodd" clip-rule="evenodd" d="M46.567 49.897l.682-2.219-2.273-3.613-9.613-.032-.065.032c-1.753 1.046-2.013 2.979-.844 5.705l-7.112-.032c0-.031.195-.507.195-.507h-1.461l.487-1.87-1.364-4.152H24.16l-.065.031c-.357.19-.747.38-1.137.54-.811.348-1.656.728-2.143 1.267l-.032.032-.033.063c-.325.92-.65 1.807-.812 2.694l-.032.096.844 1.616-6.072-.063 2.143-6.213 1.623-2.029c.52-1.172.585-1.838.683-2.694.032-.254.065-.57.097-.887l.032-.35-2.175.096-.033.222c-.227 1.046-.78 1.712-1.72 2.124-1.235.634-2.014 1.711-2.501 2.694-.975-3.011-.39-4.12-.065-4.755 1.786-2.282 2.922-2.314 4.124-2.314.714 0 1.494 0 2.37-.507.617-.349 1.819-1.236 2.404-1.712 1.623-.602 2.727-2.345 4.026-4.374 1.396-2.219 3.02-4.755 5.78-6.308l.617-.348-.681-.19c-2.046-.571-3.085-1.047-3.605-1.68.552-.666 1.169-1.205 1.916-1.617l.325-.159-.228-.285c-.811-.982-1.071-1.902-.876-2.82.324-1.3 1.72-2.6 4.124-3.836-1.332 1.711-1.884 3.613-1.364 4.881.292.73 1.072 1.617 3.117 1.617.228 0 .455 0 .715-.032 1.786-.254 3.02-.38 4.254-.38 1.169 0 2.338.095 3.734.317h.228c1.46 0 2.565-.634 3.02-1.744.552-1.331 0-3.106-1.462-4.723 2.339.698 3.767 1.68 4.254 2.916.423 1.046.163 2.314-.779 3.74l-.13.191 2.046 1.87c-1.331.951-2.566 1.553-4.287 1.743l-.422.032.195.38c.78 1.585.617 3.17-.552 4.85l-.097.127 3.54 9.097.13 6.72.032.064c.714 1.172 2.143 3.518 3.702 4.596l1.104 2.092h-7.47z" fill="#BD732C"/><path d="M51.732 49.262l-.357-.475-.358.507h-.974l-2.435.032.422-.856 2.013-.064 2.014-.063.39.92h-.715zm-6.138-6.054l1.202-2.853a11.643 11.643 0 01-1.526 1.712c-.455.412-.942.76-1.43 1.046h-9.643l-1.786 2.409v1.87h-3.215l1.429-3.74.033-.096-.033-.095c-1.007-2.472-.682-5.261 0-8.146v-.032c-1.137 2.314-1.916 4.692-1.461 7.386h-3.215l-.715-.412c1.007-3.265.455-5.167-1.104-6.15l-.487.444c1.591 1.49 2.176 3.328.325 5.96l-2.955 1.267-1.332 1.205-.617 2.536-2.76-.064h-.227l.227-.856.812-2.916 1.689-1.775 1.266-5.23 1.689-2.884c.714-.444 1.688-1.332 2.403-1.775l3.637-4.914 1.136-1.553 1.689-1.3 2.273-1.743-.325 3.265c-.194 1.141 1.851 1.68 3.085 2.41.163.094.293.19.423.284.162.92-.455 1.3.162 1.712.714.444 1.396.983 2.046 1.395a6.33 6.33 0 001.071.634c.098.031.163.063.26.095h3.735l.13-.127 1.753-1.775.422-.444 1.267 3.075 1.234 3.011-.13 7.005 2.013 2.948.91 1.363h-2.5l-1.495-2.187-1.364-1.965zm-14.223 6.054l-.357-.666-.357.412-.163.19-2.208.032.552-.95h1.819l2.208-.032.162.982-1.656.032zM27.766 47.9l-1.428-4.438h2.987c-.26 1.427-.877 2.853-1.494 4.248l-.065.19zm-7.956 1.33l-.78-.443-.032.475-2.63-.063-.65-.032.195-.76h3.768l.486.823h-.357zm-3.052-12.235a3.463 3.463 0 01-.39.856c-.78 1.141-2.338 1.87-3.377 3.075-.195-1.332 0-2.441.65-3.36.746-.856 1.72-1.237 2.76-1.459 1.266-.285 2.565-.38 3.442-1.045-.325 1.3-1.364 1.933-3.085 1.933zm13.899-15.976a1.698 1.698 0 01-.812-.887c.227-.222.487-.412.812-.539 1.136-.475 2.857-.317 5 .412l.065-.032c.552-.348.942-.697 1.527-.887.194-.127.617-.222 1.136-.254.325-.032.682-.063 1.072-.063 1.039-.032 2.078.063 2.403.19.552.222 1.136.602 1.689 1.173a7.496 7.496 0 011.623 2.536c.033.127.098.285.13.444.227.887.422 2.218 0 2.916a.785.785 0 01-.487.412c-.844.158-1.007-.38-.91-1.68h.325c.585-.095.942-1.744.683-1.997-.488-.254-1.007-.286-1.364.063-.358.349-.488 1.014-.228 2.219.065.254.163.507.228.697.422 1.205.844 1.712 1.266 1.966l.162 1.33c-.422.762-.682 1.65-1.428 2.093-.065.032-.163.095-.26.127-.845.348-2.403.76-3.637.063l-.098-.222.715-.253c-.293.031-.552.031-.812.031-.39 0-.747-.063-1.072-.158-1.136-.349-1.526-1.3-1.396-2.663l-1.267-.856-1.786-1.236c-.324-1.521.293-3.455.422-5.166-1.656.538-2.89.634-3.701.221zm14.483-1.267c.032-.064.097-.127.13-.19.324-.318 1.006-.381 1.688-.286.845.095 1.689.412 1.949.76-.357.413-.91.73-1.949.793h-.195c-.714-.032-1.234-.127-1.493-.317-.26-.158-.325-.412-.13-.76zm8.053 27.893c-1.234-.792-2.37-2.44-3.15-3.645-.227-.349-.39-.634-.552-.887l-.162-6.72-2.403-6.118-1.104-2.821c1.169-1.712 1.428-3.423.584-5.135.195-.032.357-.032.52-.063 1.136-.19 2.11-.603 3.085-1.205a18.03 18.03 0 001.104-.76l-1.104-1.015-1.007-.95c.585-.889.91-1.713 1.007-2.442v-.792c-.163-1.331-1.234-2.44-3.085-3.265a17.105 17.105 0 00-1.689-.602c-.292-.095-.617-.159-.942-.254.358.317.65.634.942.951 2.014 2.41 1.754 4.691 0 5.484-.455.222-1.039.317-1.688.285h-.065c-1.56-.222-2.826-.317-4.092-.317-.357 0-.715.032-1.072.032a45.37 45.37 0 00-2.663.285l-.194.032c-5.229.444-4.255-4.216-1.17-7.1-1.558.697-2.76 1.394-3.669 2.092-2.468 1.902-2.63 3.803-1.072 5.705a6.62 6.62 0 00-1.753 1.395l-.39.475c.098.159.227.317.39.444.552.507 1.494.92 2.825 1.331.195.064.422.127.65.19a4.467 4.467 0 00-.65.413c-1.137.729-2.046 1.648-2.825 2.599-2.533 3.043-3.767 6.72-6.3 7.67-.617.508-1.786 1.364-2.338 1.68-1.04.571-1.884.413-2.793.476-1.072.063-2.208.38-3.832 2.473-.487.95-.974 2.313.325 5.705.454-1.173 1.234-2.536 2.63-3.265.325-.127.617-.317.877-.538.455-.38.812-.952 1.007-1.776l1.558-.063c-.194 1.395-.13 2.06-.714 3.455l-1.689 2.124-.195.539-2.11 6.054h2.11l4.872.032-1.007-1.966c.162-.887.487-1.775.812-2.662.714-.761 2.143-1.173 3.215-1.775h.747l1.266 3.867-.552 2.155h1.396c-.065.159-.13.349-.194.507h7.987c-1.331-2.789-1.202-4.723.52-5.769h9.386l.487.793 1.623 2.599-.746 2.472h8.41l-1.364-2.409z" fill="#6A301A"/><path d="M38.773 27.264l-.13-5.072-.292.603-.39.855.39 1.807.422 1.807zM35.72 23.08c.098.063.228.127.325.19-.032.856.358 1.236 1.234 1.205.228.095.39.317.487.57.163-1.648-.194-2.726-2.013-2.44a.956.956 0 00-.292.063c-.325.127-.033.254.26.412zm2.858 5.579c.065.317.455.38.715.412h.162c.325 0 .617.127.877.317.065-.666-.39-1.046-.877-1.173s-.974.032-.877.444zm5.066.444c.163-.032.455-.096.487-.38.065-.381-.26-.508-.617-.413-.325.095-.65.444-.617 1.078a.808.808 0 01.617-.286h.13zm-7.923 8.431l.844 2.092-.715 2.219h-.13l-.811-.095.65-1.965-.715-1.997.844-.286.032.032z" fill="#6A301A"/></svg>