<svg width="88" height="88" fill="none" xmlns="http://www.w3.org/2000/svg"><g clip-path="url(#clip0_2_21328)"><path d="M87.998 44c0 24.3-19.697 44-44 44C19.701 88 .002 68.298.002 44c0-24.3 19.7-44 43.997-44C68.3 0 87.997 19.698 87.997 44z" fill="#2DA0A6"/><path d="M82.098 44c0 21.04-17.058 38.1-38.1 38.1C22.96 82.1 5.9 65.04 5.9 44 5.9 22.958 22.96 5.904 44 5.904c21.04 0 38.1 17.053 38.1 38.094z" fill="#fff"/><path d="M76.302 65.64c7.834-11.895 8.129-26.561 2.053-38.387l-33.8 17.431-.19 38.094c12.416.03 24.596-5.994 31.937-17.139z" fill="#2DA0A6" fill-opacity=".2"/><path fill-rule="evenodd" clip-rule="evenodd" d="M43.998 88c24.303 0 44-19.7 44-44 0-24.302-19.697-44-44-44C19.702 0 .003 19.7.003 44c0 24.298 19.7 44 43.996 44zm0-5.9c21.042 0 38.1-17.06 38.1-38.1 0-21.042-17.058-38.096-38.1-38.096C22.959 5.904 5.9 22.958 5.9 44c0 21.04 17.06 38.1 38.098 38.1z" fill="#2DA0A6"/><path d="M45.069 15.939v-5.18a1.067 1.067 0 00-2.134 0v5.18a1.067 1.067 0 002.134 0zM15.94 42.935h-5.187a1.064 1.064 0 100 2.128h5.188a1.064 1.064 0 100-2.128zm29.129 34.311V72.06a1.067 1.067 0 00-2.134 0v5.185a1.067 1.067 0 002.134 0zm32.179-34.311h-5.19a1.064 1.064 0 000 2.128h5.19a1.064 1.064 0 100-2.128z" fill="#2DA0A6"/></g><defs><clipPath id="clip0_2_21328"><path fill="#fff" d="M0 0h88v88H0z"/></clipPath></defs></svg>