<svg width="88" height="88" fill="none" xmlns="http://www.w3.org/2000/svg"><g clip-path="url(#clip0_2_21343)"><path d="M87.996 44c0 24.3-19.697 44-44 44C19.7 88 0 68.298 0 44 0 19.7 19.7 0 43.997 0c24.302 0 43.999 19.698 43.999 44z" fill="#BF573F"/><path d="M82.096 44c0 21.04-17.058 38.1-38.1 38.1C22.958 82.1 5.898 65.04 5.898 44c0-21.041 17.059-38.095 38.099-38.095 21.04 0 38.1 17.053 38.1 38.094z" fill="#fff"/><path fill-rule="evenodd" clip-rule="evenodd" d="M43.996 88c24.303 0 44-19.7 44-44 0-24.302-19.697-44-44-44C19.7 0 0 19.7 0 44c0 24.298 19.7 44 43.996 44zm0-5.9c21.042 0 38.1-17.06 38.1-38.1 0-21.042-17.059-38.096-38.1-38.096C22.957 5.904 5.899 22.958 5.899 44c0 21.04 17.06 38.101 38.098 38.101z" fill="#BF573F"/><path d="M45.07 15.938V10.76a1.067 1.067 0 10-2.133 0v5.178a1.067 1.067 0 102.134 0zM15.939 42.935H10.75a1.064 1.064 0 100 2.128h5.188a1.064 1.064 0 000-2.128zm29.131 34.31v-5.184a1.067 1.067 0 10-2.133 0v5.184a1.067 1.067 0 102.134 0zm32.176-34.31h-5.19a1.064 1.064 0 100 2.128h5.19a1.064 1.064 0 000-2.128z" fill="#BF573F"/><path fill-rule="evenodd" clip-rule="evenodd" d="M10.095 25.257l32.792 19.675.43 37.737a38.29 38.29 0 01-19.088-4.888l-.009.014c-9.512-5.367-16.488-14.7-18.676-25.757a37.981 37.981 0 01-.343-12.839 37.803 37.803 0 012.748-9.734c.3-.698.623-1.387.966-2.067l.004.002a37.99 37.99 0 011.176-2.143z" fill="#BF573F" fill-opacity=".2"/></g><defs><clipPath id="clip0_2_21343"><path fill="#fff" d="M0 0h88v88H0z"/></clipPath></defs></svg>