<svg width="88" height="88" fill="none" xmlns="http://www.w3.org/2000/svg"><g clip-path="url(#clip0_2_21311)"><path d="M87.998 44c0 24.3-19.697 44-44 44C19.701 88 .002 68.298.002 44c0-24.3 19.7-44 43.997-44C68.3 0 87.997 19.698 87.997 44z" fill="#D98F4E"/><path d="M82.098 44c0 21.04-17.058 38.1-38.1 38.1C22.96 82.1 5.9 65.04 5.9 44 5.9 22.958 22.96 5.904 44 5.904c21.04 0 38.1 17.053 38.1 38.094z" fill="#fff"/><path fill-rule="evenodd" clip-rule="evenodd" d="M44.033 5h.155c13.346 0 25.076 6.858 31.88 17.243l-.222.145c.426.657.832 1.328 1.218 2.013L45.641 42.069l-1.49.97-.118-.066-.118.067-1.49-.97L11.003 24.4a38.28 38.28 0 011.219-2.012l-.223-.145C18.802 11.858 30.532 5 43.878 5h.155z" fill="#D98F4E" fill-opacity=".2"/><path fill-rule="evenodd" clip-rule="evenodd" d="M43.998 88c24.303 0 44-19.7 44-44 0-24.302-19.697-44-44-44C19.702 0 .003 19.7.003 44c0 24.298 19.7 44 43.996 44zm0-5.9c21.042 0 38.1-17.06 38.1-38.1 0-21.042-17.058-38.096-38.1-38.096C22.959 5.904 5.9 22.958 5.9 44c0 21.04 17.06 38.1 38.098 38.1z" fill="#D98F4E"/><path d="M45.069 15.938V10.76a1.067 1.067 0 10-2.134 0v5.178a1.067 1.067 0 002.134 0zM15.94 42.935h-5.187a1.064 1.064 0 100 2.128h5.188a1.064 1.064 0 000-2.128zm29.129 34.31v-5.184a1.067 1.067 0 10-2.134 0v5.184a1.067 1.067 0 002.134 0zm32.179-34.31h-5.19a1.064 1.064 0 000 2.128h5.19a1.064 1.064 0 000-2.128z" fill="#D98F4E"/></g><defs><clipPath id="clip0_2_21311"><path fill="#fff" d="M0 0h88v88H0z"/></clipPath></defs></svg>