<svg width="89" height="92" fill="none" xmlns="http://www.w3.org/2000/svg"><path d="M5.002 70.655c5.944 17.475 17.042 23.977 33.294 19.507 16.252-4.47 30.247-13.208 41.985-26.212 11.737-13.005 11.624-25.765-.339-38.282C67.98 13.151 54.662 5.674 39.99 3.235 25.317.797 14.332 7.055 7.034 22.011-.265 36.965-.942 53.18 5.002 70.654z" fill="#EFF3F6"/><path d="M87.273 8.29c-.924 1.5-2.302 2.387-4.24 2.66-.932.13-1.708.004-2.37-.333-.67-.341-1.297-.935-1.86-1.858-.557-.912-.805-1.773-.803-2.596.003-.824.256-1.681.818-2.587 1.109-1.787 2.6-2.608 4.568-2.575 1.024.017 1.833.25 2.471.652.636.4 1.167 1.008 1.573 1.878.822 1.755.743 3.298-.157 4.759z" stroke="#2DA0A6" stroke-width="2"/><g clip-path="url(#clip0_15_3)" fill="#2DA0A6"><path d="M30.8 38.63c-.07-.65-.11-1.32-.11-1.99 0-.68.04-1.35.11-2.01H12.45l-1.55-5.89a2 2 0 00-1.93-1.49H2c-1.1 0-2 .9-2 2s.9 2 2 2h5.43l1.55 5.9c0 .01.01.01.01.01l4.86 18.74c.23.88 1.03 1.49 1.94 1.49h.24c-.29.72-.45 1.5-.45 2.32 0 3.48 2.83 6.31 6.31 6.31 3.48 0 6.31-2.83 6.31-6.31 0-.82-.16-1.6-.45-2.32h4.76c-.29.72-.45 1.5-.45 2.32 0 3.48 2.83 6.31 6.31 6.31 3.48 0 6.31-2.83 6.31-6.31 0-.82-.16-1.6-.45-2.32h.24c.91 0 1.71-.61 1.94-1.49l.21-.81a18.51 18.51 0 01-5.48-1.7c-5.62-2.76-9.65-8.27-10.34-14.76zm-6.6 21.08c0 1.27-1.03 2.31-2.31 2.31-1.27 0-2.31-1.04-2.31-2.31a2.32 2.32 0 012.31-2.32c1.28 0 2.31 1.04 2.31 2.32zm16.48 0c0 1.27-1.04 2.31-2.31 2.31-1.28 0-2.31-1.04-2.31-2.31 0-1.28 1.03-2.32 2.31-2.32a2.32 2.32 0 012.31 2.32z"/><path d="M49.34 21.98c-8.08 0-14.65 6.58-14.65 14.66s6.57 14.65 14.65 14.65c8.09 0 14.66-6.57 14.66-14.65s-6.57-14.66-14.66-14.66zm4.35 16.66h-2.35v2.35a2 2 0 11-4 0v-2.35H45a2 2 0 01-2-2c0-1.11.89-2 2-2h2.34v-2.35a2 2 0 012-2c1.11 0 2 .89 2 2v2.35h2.35c1.11 0 2 .89 2 2a2 2 0 01-2 2z"/></g><defs><clipPath id="clip0_15_3"><path fill="#fff" transform="translate(0 12)" d="M0 0h64v64H0z"/></clipPath></defs></svg>