<svg width="88" height="92" fill="none" xmlns="http://www.w3.org/2000/svg"><path d="M4.002 70.655C9.946 88.13 21.044 94.632 37.296 90.162c16.252-4.47 30.247-13.208 41.985-26.212 11.737-13.005 11.624-25.765-.339-38.282C66.98 13.151 53.662 5.674 38.99 3.235 24.317.797 13.332 7.055 6.034 22.011c-7.299 14.954-7.976 31.17-2.032 48.644z" fill="#EFF3F6"/><path d="M85.46 17.12c-1.932 3.274-4.826 5.19-8.776 5.77-1.936.284-3.61.016-5.065-.758-1.465-.778-2.786-2.11-3.937-4.077C66.54 16.1 65.994 14.194 66 12.322c.006-1.871.561-3.772 1.716-5.713 2.296-3.861 5.448-5.678 9.539-5.607 2.088.036 3.803.534 5.193 1.447 1.39.913 2.52 2.284 3.367 4.174 1.703 3.796 1.558 7.256-.355 10.497zm.813 67.17c-.924 1.5-2.302 2.387-4.24 2.66-.932.13-1.708.004-2.37-.334-.67-.34-1.297-.934-1.86-1.857-.557-.912-.805-1.773-.803-2.596.003-.824.256-1.681.818-2.587 1.109-1.787 2.6-2.608 4.568-2.575 1.024.017 1.833.25 2.471.652.636.4 1.167 1.008 1.573 1.878.822 1.755.743 3.298-.157 4.759z" stroke="#BF573F" stroke-width="2"/><g clip-path="url(#clip0_15_4)" fill="#BF573F"><path d="M3.352 24.356a84.523 84.523 0 0026.824 9.863 85.294 85.294 0 0014.047 1.425 68.466 68.466 0 009.146-3.913 9.844 9.844 0 019.522.251c2.907-4.374-.773-10.22-6.03-9.393a72.17 72.17 0 01-11.603.865l-.856 4.613a1.884 1.884 0 01-3.701-.687l.75-4.05a72.77 72.77 0 01-7.197-.781l-.797 4.299a1.883 1.883 0 01-3.701-.687l.798-4.3a72.221 72.221 0 01-6.812-1.794l-.748 4.025a1.882 1.882 0 11-3.7-.686l.85-4.578a72.067 72.067 0 01-10.708-5.043 6.096 6.096 0 00-8.327 2.242 6.107 6.107 0 002.243 8.329zM3.24 50.382a9.799 9.799 0 017.516.709 68.39 68.39 0 009.898 4.272c13.466.167 27.325-2.877 40.047-9.453a6.094 6.094 0 002.615-8.219c-1.388-2.7-4.809-4.32-8.354-2.547-3.503 1.803-7.28 3.36-10.6 4.422l.647 4.647a1.882 1.882 0 11-3.728.52l-.568-4.08a73.047 73.047 0 01-7.075 1.537l.603 4.33a1.883 1.883 0 11-3.728.52l-.603-4.332c-2.334.264-4.68.416-7.03.454l.564 4.054a1.882 1.882 0 11-3.728.52l-.642-4.613a72.223 72.223 0 01-11.75-1.396c-5.473-1.108-9.387 5.093-6.149 9.556a9.97 9.97 0 012.065-.901zM56.704 61.52a72.24 72.24 0 01-11.566 1.28l-.69 4.64a1.883 1.883 0 01-3.723-.553l.606-4.075a73.08 73.08 0 01-7.221-.523l-.644 4.324a1.88 1.88 0 11-3.723-.553l.643-4.325a72.967 72.967 0 01-6.873-1.551l-.602 4.05a1.882 1.882 0 11-3.723-.555l.68-4.564.005-.042a72.293 72.293 0 01-10.878-4.656l-.026-.013a6.093 6.093 0 00-8.217 2.553 6.103 6.103 0 002.54 8.242c16.566 8.766 36.297 12.056 55.73 8.296a6.094 6.094 0 004.829-7.145 6.095 6.095 0 00-7.147-4.83z"/></g><defs><clipPath id="clip0_15_4"><path fill="#fff" transform="translate(0 12)" d="M0 0h64v64H0z"/></clipPath></defs></svg>