<svg width="88" height="92" fill="none" xmlns="http://www.w3.org/2000/svg"><path d="M4.002 71.037c5.944 17.475 17.042 23.977 33.294 19.507 16.252-4.47 30.247-13.208 41.985-26.212 11.737-13.004 11.624-25.765-.339-38.282C66.98 13.534 53.662 6.056 38.99 3.618 24.317 1.179 13.332 7.438 6.034 22.393c-7.299 14.955-7.976 31.17-2.032 48.644z" fill="#EFF3F6"/><path d="M85.46 17.12c-1.932 3.274-4.826 5.19-8.776 5.77-1.936.284-3.61.016-5.065-.758-1.465-.778-2.786-2.11-3.937-4.077C66.54 16.1 65.994 14.194 66 12.322c.006-1.871.561-3.772 1.716-5.713 2.296-3.861 5.448-5.678 9.539-5.607 2.088.036 3.803.534 5.193 1.447 1.39.913 2.52 2.284 3.367 4.174 1.703 3.796 1.558 7.256-.355 10.497zM10.273 8.29c-.924 1.5-2.302 2.387-4.24 2.66-.932.13-1.708.004-2.37-.333-.67-.341-1.297-.935-1.86-1.858C1.246 7.847.997 6.986 1 6.163c.003-.824.256-1.681.818-2.587 1.109-1.787 2.6-2.608 4.568-2.575 1.024.017 1.833.25 2.471.652.636.4 1.167 1.008 1.574 1.878.82 1.755.742 3.298-.158 4.759z" stroke="#D98F4E" stroke-width="2"/><path fill-rule="evenodd" clip-rule="evenodd" d="M45.625 25.377c5.549 1.288 7.671 4.532 10.333 8.998H45.625v-8.998zM13.197 34.75c1.087 0 1.875.524 1.875 1.75a1.875 1.875 0 01-1.87 1.875H1.876a1.875 1.875 0 000 3.75H18.75a1.875 1.875 0 11.007 3.75H1.875a1.875 1.875 0 100 3.75H6v5.625c0 1.036.84 1.875 1.875 1.875h3.769a7.19 7.19 0 0014.087 0h19.038a7.19 7.19 0 0014.087 0h3.269c1.036 0 1.875-.84 1.875-1.875V44c0-5.502-5.803-5.867-5.808-5.875H43.75a1.875 1.875 0 01-1.875-1.875V25h-34C6.839 25 6 25.84 6 26.875V31H3.75a1.875 1.875 0 100 3.75h9.447zm41.046 18.507a3.439 3.439 0 010 4.862c-2.159 2.159-5.868.623-5.868-2.431 0-3.054 3.709-4.59 5.868-2.431zm-33.125 0a3.439 3.439 0 010 4.862c-2.159 2.159-5.868.623-5.868-2.431 0-3.054 3.709-4.59 5.868-2.431z" fill="#D98F4E"/></svg>